<?xml version="1.0" encoding="UTF-8" standalone="no"?>
<!-- Created with Inkscape (http://www.inkscape.org/) -->

<svg
   width="300mm"
   height="300mm"
   viewBox="0 0 300 300"
   version="1.1"
   id="svg1"
   xml:space="preserve"
   inkscape:version="1.4.3 (0d15f75, 2025-12-25)"
   sodipodi:docname="logo1.svg"
   xmlns:inkscape="http://www.inkscape.org/namespaces/inkscape"
   xmlns:sodipodi="http://sodipodi.sourceforge.net/DTD/sodipodi-0.dtd"
   xmlns="http://www.w3.org/2000/svg"
   xmlns:svg="http://www.w3.org/2000/svg"><sodipodi:namedview
     id="namedview1"
     pagecolor="#ffffff"
     bordercolor="#000000"
     borderopacity="0.25"
     inkscape:showpageshadow="2"
     inkscape:pageopacity="0.0"
     inkscape:pagecheckerboard="0"
     inkscape:deskcolor="#d1d1d1"
     inkscape:document-units="mm"
     inkscape:zoom="0.3288176"
     inkscape:cx="524.60696"
     inkscape:cy="463.78296"
     inkscape:window-width="1512"
     inkscape:window-height="920"
     inkscape:window-x="0"
     inkscape:window-y="34"
     inkscape:window-maximized="1"
     inkscape:current-layer="layer1" /><defs
     id="defs1" /><g
     inkscape:label="Camada 1"
     inkscape:groupmode="layer"
     id="layer1"><path
       style="fill:#d7b05c;fill-opacity:1"
       d="m 94.536474,283.88054 c -3.50366,-0.89095 -6.86811,-3.51878 -8.23166,-6.42942 -0.65764,-1.4038 -0.7219,-1.81175 -0.70181,-4.4557 0.0178,-2.34586 0.13675,-3.20489 0.61309,-4.4285 1.72071,-4.42002 4.81787,-6.71904 9.982619,-7.41007 3.60665,-0.48257 7.418587,0.53292 9.855907,2.62557 l 0.89456,0.76806 -1.77532,1.70893 c -0.97643,0.93991 -1.87907,1.74664 -2.00587,1.79273 -0.12681,0.0461 -0.57449,-0.17048 -0.99486,-0.48127 -1.39657,-1.03253 -4.570487,-1.39045 -6.215847,-0.70096 -1.222629,0.51235 -2.545349,1.70077 -3.409409,3.06325 -1.74027,2.74412 -0.25565,6.71279 3.022649,8.08016 1.58621,0.6616 3.86721,0.80241 5.042617,0.31129 0.94338,-0.39417 1.0025,-0.48491 0.92526,-1.41993 l -0.0825,-0.99885 h -1.719797 -1.71979 l -0.0753,-2.86731 -0.0753,-2.86731 0.86908,0.19232 c 0.478,0.10577 2.655017,0.26497 4.837827,0.35377 l 3.96875,0.16145 0.0798,4.10104 c 0.10924,5.61678 0.005,6.19887 -1.26022,7.03614 -0.55738,0.36886 -1.88902,0.97918 -2.95919,1.35627 -2.34215,0.82529 -6.647837,1.07218 -8.865176,0.50834 z m 38.133216,-0.17031 c -0.34355,-0.12202 -2.65542,-3.80362 -3.85031,-6.13151 -0.55027,-1.07204 -1.38255,-1.49357 -1.97619,-1.00089 -0.29946,0.24853 -0.38418,1.07024 -0.38418,3.72603 v 3.40718 h -3.04271 -3.04271 v -10.84791 c 0,-5.96636 0.0298,-10.93722 0.0661,-11.04636 0.0364,-0.10914 2.80459,-0.19844 6.15157,-0.19844 6.86158,0 8.16558,0.24573 9.75881,1.83895 1.47773,1.47773 1.88343,2.62352 1.87832,5.30481 -0.005,2.84957 -0.49697,3.99999 -2.40638,5.6321 l -1.23847,1.05861 1.66124,3.00464 c 0.91369,1.65256 1.94316,3.38365 2.28772,3.84689 0.34456,0.46323 0.62647,0.96204 0.62647,1.10846 0,0.27643 -5.80002,0.54227 -6.48933,0.29744 z m -1.2676,-13.12577 c 0.63612,-0.47493 0.74546,-0.74222 0.74546,-1.82237 0,-1.8242 -0.7229,-2.30539 -3.69807,-2.46155 l -2.25505,-0.11836 v 2.37034 c 0,1.30368 0.0893,2.46051 0.19843,2.57074 0.10915,0.11023 1.11314,0.15932 2.2311,0.10909 1.55492,-0.0699 2.20787,-0.22213 2.77813,-0.64789 z m 44.99702,13.18794 -6.28385,-0.0709 v -11.10772 -11.10771 h 2.86766 2.86765 l 0.17369,8.5094 c 0.0955,4.68017 0.22282,8.55853 0.28287,8.61859 0.0601,0.06 2.14426,0.17803 4.63157,0.26218 l 4.52239,0.153 v 2.33587 c 0,2.57842 -0.0666,2.66338 -1.98437,2.53245 -0.43657,-0.0298 -3.62149,-0.0861 -7.07761,-0.12513 z m 20.66731,0.018 c -0.02,-0.11642 -0.0497,-5.18572 -0.0661,-11.26513 l -0.0298,-11.05345 3.0427,0.0733 3.04271,0.0732 0.0698,8.5008 0.0698,8.5008 4.62659,0.19275 4.62658,0.19274 v 2.35281 c 0,1.70775 -0.0907,2.35184 -0.33073,2.34927 -0.1819,-0.002 -3.63471,0.0635 -7.67291,0.14552 -4.03821,0.082 -7.35854,0.0538 -7.37853,-0.0626 z m -46.0548,-9.14136 c -0.0757,-4.98408 -0.11198,-9.95494 -0.0806,-11.04635 l 0.057,-1.98438 2.9073,-0.0744 2.90729,-0.0744 0.17318,4.17547 c 0.0952,2.2965 0.17357,7.30085 0.17405,11.12077 l 8.8e-4,6.94531 h -3.00071 -3.00072 z m -85.539066,0.5671 c -1.16416,-0.13354 -3.78354,-0.47439 -5.82083,-0.75744 -2.03729,-0.28305 -4.41854,-0.58426 -5.29167,-0.66936 -2.20006,-0.21443 -3.38136,-0.41119 -3.25105,-0.5415 0.0607,-0.0607 3.61495,-0.58944 7.89839,-1.17503 4.28344,-0.58559 8.08574,-1.1135 8.44954,-1.17313 0.91131,-0.14937 6.10388,1.36744 6.7161,1.96185 0.48634,0.4722 0.47355,0.49638 -0.52917,1.00022 -2.65588,1.3345 -4.98267,1.72016 -8.17131,1.35439 z M 226.7351,274.74975 c -2.54293,-0.81402 -3.55267,-1.79465 -2.4464,-2.37588 0.25466,-0.1338 1.59411,-0.50254 2.97656,-0.81943 l 2.51354,-0.57616 5.42396,0.66199 c 10.92308,1.33315 12.71694,1.58897 12.38112,1.76566 -0.18842,0.0991 -1.40819,0.25821 -2.7106,0.35349 -1.30241,0.0953 -4.74542,0.46837 -7.65114,0.82909 -6.17265,0.76627 -8.48587,0.80184 -10.48704,0.16124 z M 15.947074,252.3278 c 0.25648,-0.89876 0.444,-3.04814 0.85144,-9.75947 0.22086,-3.63802 0.63334,-10.12692 0.91663,-14.41979 0.28328,-4.29286 0.69658,-11.37708 0.91844,-15.74271 0.22187,-4.36562 0.47728,-8.8916 0.56759,-10.05772 l 0.1642,-2.12023 -1.33958,-2.57613 -1.33958,-2.57612 h 4.43732 c 4.74966,0 9.77575,0.38047 10.9181,0.8265 0.55772,0.21775 0.8641,0.71371 1.50452,2.43545 0.44231,1.1891 1.3586,3.65029 2.03621,5.4693 0.67761,1.81901 1.92,5.27182 2.76087,7.67291 0.84087,2.4011 1.93992,5.43719 2.44233,6.74688 0.50242,1.30969 1.11996,3.05252 1.37231,3.87296 0.25235,0.82044 0.61803,1.70943 0.81261,1.97554 0.32265,0.44124 0.38375,0.37981 0.69426,-0.69796 0.18726,-0.64999 1.33086,-3.7102 2.54133,-6.80048 1.21047,-3.09029 2.20086,-5.67385 2.20086,-5.74126 0,-0.31534 5.10037,-13.80792 5.56056,-14.70997 0.37953,-0.74394 0.7642,-1.09109 1.4051,-1.26805 1.00354,-0.27709 14.201,-0.0732 14.201,0.21937 0,0.10425 -0.31571,0.65265 -0.70159,1.21866 -1.51674,2.22476 -1.93742,3.51435 -1.80106,5.5211 0.49312,7.25698 1.53705,30.46293 1.88785,41.96566 l 0.16612,5.44723 -3.41368,0.17409 c -1.87752,0.0957 -4.63407,0.17457 -6.12566,0.17516 l -2.71198,0.001 -0.006,-2.44739 c -0.003,-1.34607 -0.11695,-6.2574 -0.25232,-10.91407 -0.5874,-20.20538 -0.58909,-20.24062 -0.96916,-20.24062 -0.19791,0 -0.35983,0.039 -0.35983,0.0866 0,0.36975 -3.44507,9.91224 -4.85923,13.45958 -0.96871,2.42994 -2.22867,5.70416 -2.79992,7.27604 -2.10547,5.79362 -2.56529,6.81562 -3.21848,7.15355 -0.56491,0.29225 -4.99737,0.49375 -4.99737,0.22718 0,-0.21519 -9.80738,-26.5004 -10.10337,-27.07849 -0.16764,-0.32742 -0.38643,-0.59531 -0.4862,-0.59531 -0.21272,0 -0.26306,0.83818 -1.20773,20.10833 -0.39593,8.07641 -0.81444,14.7914 -0.93004,14.9222 -0.1156,0.1308 -2.27486,0.39015 -4.79835,0.57632 -2.52349,0.18618 -4.924,0.42279 -5.33446,0.52581 -0.64647,0.16225 -0.72724,0.12055 -0.60388,-0.31174 z m 265.954646,-0.53344 c -0.43657,-0.0481 -2.85467,-0.28941 -5.37356,-0.53633 -3.57861,-0.35079 -4.62705,-0.53992 -4.79592,-0.86515 -0.11887,-0.22892 -0.83398,-2.97606 -1.58913,-6.10475 -0.75516,-3.1287 -1.4545,-5.76508 -1.55408,-5.85863 -0.0996,-0.0935 -3.30826,-0.25258 -7.1304,-0.35342 l -6.94933,-0.18333 -0.37681,0.90182 c -0.20724,0.496 -0.99972,3.21488 -1.76107,6.04196 -0.76134,2.82708 -1.45317,5.22138 -1.5374,5.32068 -0.14665,0.1729 -8.2498,-0.26996 -8.45432,-0.46205 -0.0545,-0.0512 2.04579,-7.27161 4.66732,-16.04537 2.62152,-8.77376 5.38512,-18.27401 6.14133,-21.11166 0.7562,-2.83766 1.84459,-6.56756 2.41864,-8.28867 l 1.04372,-3.1293 -1.19,-1.89779 -1.19,-1.89779 7.58043,-0.0703 c 4.16923,-0.0387 7.68211,0.0314 7.80639,0.15569 0.21343,0.21342 0.89243,2.75857 6.40057,23.99168 1.24575,4.80219 2.73623,10.45765 3.31219,12.56771 0.57595,2.11005 1.84382,6.87255 2.81747,10.58333 0.97366,3.71078 1.82636,6.8957 1.89491,7.0776 0.12446,0.33032 -0.34804,0.36586 -2.18095,0.16405 z m -14.76575,-21.095 c 0.0647,-0.0647 -0.7988,-3.73097 -1.9189,-8.14725 -1.1201,-4.41629 -2.2492,-8.96203 -2.50911,-10.10165 -0.47451,-2.08062 -0.654,-2.51007 -0.93262,-2.23144 -0.24653,0.24653 -2.15395,7.10108 -3.56544,12.81283 -0.72502,2.93389 -1.49177,5.82623 -1.70388,6.42742 -0.29683,0.84129 -0.31127,1.12041 -0.0627,1.21169 0.38631,0.14186 8.40829,0.32341 9.68231,0.21912 0.49098,-0.0402 0.94562,-0.12601 1.01033,-0.19072 z m -67.51967,18.71966 c -4.39041,-0.78379 -7.39577,-2.04441 -8.86597,-3.71888 -0.88633,-1.00947 -0.88038,-1.14745 0.20926,-4.8516 0.36387,-1.23692 0.71782,-2.57638 0.78657,-2.97656 0.0687,-0.40018 0.20329,-0.7276 0.29899,-0.7276 0.0957,0 0.96298,0.76604 1.92729,1.70232 5.96668,5.79323 14.37028,4.86863 14.96101,-1.64607 0.2868,-3.16289 -1.43205,-5.43197 -7.6054,-10.03996 -9.10796,-6.79849 -11.11215,-9.62792 -11.09986,-15.67032 0.01,-4.687 1.08524,-7.456 3.93052,-10.11763 3.40487,-3.18508 7.64758,-4.59409 13.13051,-4.36065 4.71691,0.20082 8.28609,1.4498 9.73988,3.40832 0.49535,0.66733 0.51013,0.85971 0.22357,2.91042 -0.16876,1.20772 -0.30669,2.76141 -0.3065,3.45263 1.9e-4,0.69122 -0.089,1.25613 -0.1981,1.25534 -0.10914,-7.8e-4 -0.74791,-0.57094 -1.41948,-1.26701 -2.12276,-2.20018 -5.26964,-3.49406 -8.49803,-3.49406 -3.42623,0 -6.15179,2.994 -5.63987,6.19535 0.48594,3.03889 2.42845,5.24643 8.47978,9.63672 7.94903,5.7671 10.18649,8.8993 10.6148,14.8596 0.12826,1.78489 0.0474,2.72578 -0.39197,4.55975 -1.44028,6.0122 -4.57279,9.02582 -11.10406,10.68261 -2.88616,0.73214 -5.85691,0.79926 -9.17294,0.20728 z M 71.759524,248.85219 c 0.072,-0.25466 0.78991,-2.66568 1.59527,-5.35781 1.48557,-4.9659 7.5552,-26.30937 8.65281,-30.42709 0.32972,-1.23692 1.17929,-4.31738 1.88795,-6.84546 0.70865,-2.52808 1.28846,-4.81408 1.28846,-5.07998 0,-0.26591 -0.41641,-1.17404 -0.92536,-2.01808 -0.50895,-0.84403 -0.92567,-1.6239 -0.92604,-1.73304 -3.8e-4,-0.10914 3.31849,-0.19844 7.37525,-0.19844 5.586259,0 7.438769,0.0803 7.634879,0.33073 0.14242,0.1819 0.56579,1.46183 0.94081,2.84427 0.37503,1.38245 1.456717,5.37104 2.403747,8.86354 0.94704,3.4925 2.63305,9.86235 3.74669,14.15521 1.8217,7.02227 4.35715,16.18139 6.90312,24.93698 0.12535,0.43106 -0.26876,0.46302 -5.70969,0.46302 -5.80964,0 -5.84584,-0.004 -6.09668,-0.59531 -0.13879,-0.32742 -0.748197,-2.67891 -1.354247,-5.22552 -0.60604,-2.54661 -1.22048,-4.78095 -1.36541,-4.96519 -0.20335,-0.25851 -1.87092,-0.31891 -7.304149,-0.26458 l -7.04064,0.0704 -0.35594,1.05834 c -0.19576,0.58208 -0.85993,3.08239 -1.47594,5.55625 l -1.12,4.49791 -1.43551,0.17228 c -0.78953,0.0948 -2.78885,0.18404 -4.44294,0.19843 -2.74457,0.0239 -2.99597,-0.0143 -2.87644,-0.43685 z m 24.430119,-19.07737 c -0.2065,-0.71882 -4.176419,-16.23642 -4.409709,-17.23669 -0.1188,-0.50933 -0.28452,-1.25347 -0.36829,-1.65365 -0.0838,-0.40018 -0.32862,-0.7276 -0.54413,-0.7276 -0.21551,0 -0.39183,0.0434 -0.39183,0.0965 0,0.0531 -0.65629,2.49393 -1.45842,5.42415 -1.19268,4.35692 -2.28297,8.72295 -3.49251,13.98569 -0.13508,0.58775 -0.12887,0.58873 4.19132,0.66146 5.683469,0.0957 6.635779,0.0148 6.473569,-0.54984 z M 229.25772,249.1175 c -1.26227,-0.0546 -2.18984,-0.21908 -2.31105,-0.40978 -0.11136,-0.1752 -0.2043,-10.8457 -0.20653,-23.7122 l -0.004,-23.39366 -0.93845,-1.7073 c -0.51615,-0.93902 -0.86349,-1.78234 -0.77187,-1.87406 0.0916,-0.0917 2.92494,-0.16675 6.29627,-0.16675 h 6.12968 l 0.48323,1.45521 c 0.51765,1.55886 0.52621,2.26609 0.46326,38.29844 l -0.0205,11.70781 -3.50573,-0.0532 c -1.92815,-0.0293 -4.45459,-0.0943 -5.61431,-0.14446 z m -83.99359,-0.52969 c -3.06458,-0.0494 -5.00631,-0.18755 -5.22842,-0.37188 -0.7624,-0.63273 -2.86191,-4.37007 -4.69046,-8.3495 -4.10472,-8.93297 -5.10884,-10.77955 -6.49908,-11.95182 -0.71031,-0.59894 -1.34123,-1.08898 -1.40204,-1.08898 -0.0608,0 -0.19656,4.78726 -0.30166,10.63835 -0.10509,5.8511 -0.24936,10.73266 -0.32059,10.84792 -0.0712,0.11526 -2.56327,0.20956 -5.53786,0.20956 h -5.40834 l -0.0201,-1.12448 c -0.0111,-0.61846 -0.0408,-11.24769 -0.0661,-23.6205 l -0.0461,-22.49603 -0.96019,-1.61245 -0.96019,-1.61245 7.04561,-0.1851 c 10.49323,-0.27568 14.54908,0.15183 18.99352,2.00206 5.64284,2.34912 8.44496,6.88328 8.39965,13.59166 -0.0361,5.34654 -2.1292,9.46965 -6.17148,12.15695 -1.03013,0.68483 -1.87297,1.3393 -1.87297,1.45437 0,0.11508 0.50642,0.96914 1.12538,1.89791 1.10663,1.66055 1.7162,2.76336 6.19832,11.21368 1.23497,2.32834 2.77126,5.08297 3.41397,6.12141 0.64272,1.03844 1.16858,2.02071 1.16858,2.18281 0,0.17483 -0.40365,0.27042 -0.99219,0.23495 -0.5457,-0.0329 -3.18597,-0.0952 -5.86727,-0.13844 z m -14.39817,-25.76304 c 1.6612,-0.31621 3.48989,-1.48287 4.41117,-2.8142 1.23539,-1.78524 1.5903,-3.14438 1.60583,-6.14953 0.018,-3.48084 -0.60922,-5.29172 -2.48121,-7.16371 -1.34954,-1.34954 -1.79915,-1.49106 -5.16461,-1.62572 l -1.85209,-0.0741 -0.0698,8.86166 c -0.0384,4.87392 -0.0102,9.01702 0.0627,9.20691 0.13599,0.35437 0.48584,0.33017 3.48801,-0.2413 z m 25.92091,24.60528 c -0.091,-0.45475 -0.16536,-10.49928 -0.16536,-22.32118 0,-12.96988 -0.10311,-22.03805 -0.25999,-22.86527 -0.143,-0.754 -0.55438,-1.98605 -0.9142,-2.73789 -0.35981,-0.75183 -0.62436,-1.39681 -0.58788,-1.43329 0.0365,-0.0365 7.17494,-0.10061 15.86324,-0.1425 8.68831,-0.0419 15.79545,-0.0762 15.79364,-0.0762 -0.0884,0 -1.62802,4.99474 -1.86222,6.04124 -0.18455,0.82466 -0.46543,1.52915 -0.62417,1.56553 -0.15875,0.0364 -3.80097,0.0661 -8.09384,0.0661 h -7.80521 v 6.35 6.35 h 6.81319 c 3.74725,0 6.80764,0.0595 6.80087,0.13229 -0.007,0.0728 -0.22215,1.73964 -0.47862,3.70417 l -0.4663,3.57187 -5.74892,-0.0924 c -3.16191,-0.0508 -6.04411,-0.0183 -6.40489,0.0722 l -0.65597,0.16464 0.0703,7.3361 0.0703,7.3361 9.39271,0.0555 c 8.84564,0.0523 9.39034,0.0831 9.35195,0.52916 -0.0224,0.2605 -0.12371,1.99169 -0.22508,3.84708 l -0.18432,3.37344 h -14.75691 -14.75695 z m 48.38568,-67.1754 c -7.75953,-1.59271 -12.08618,-2.19004 -18.12396,-2.50217 -2.83542,-0.14658 -54.08676,-0.35205 -96.824266,-0.38818 -10.25194,-0.009 -18.52678,-0.11439 -18.38854,-0.23494 0.13825,-0.12055 2.51354,-0.4301 5.27844,-0.68787 8.04905,-0.75044 17.01366,-1.9243 21.366549,-2.79784 8.285187,-1.66267 18.323347,-4.59943 25.332407,-7.41124 1.52797,-0.61297 4.92125,-1.8615 7.54062,-2.77452 2.61938,-0.91301 8.03672,-2.85533 12.03854,-4.31625 16.39773,-5.98625 26.7324,-8.51679 38.12429,-9.3351 12.08899,-0.86839 22.67634,2.13248 32.79397,9.29509 2.594,1.83638 4.48799,3.6691 4.48799,4.3428 0,0.31659 -0.25865,0.29287 -1.51313,-0.13873 -2.16512,-0.74491 -8.22459,-1.79411 -12.02979,-2.08296 -7.28421,-0.55295 -17.39195,-0.8693 -23.63104,-0.73961 -10.98246,0.22829 -18.18705,1.46652 -28.82899,4.95475 -8.50862,2.78897 -16.83274,5.30196 -21.9345,6.62186 -2.74481,0.71012 -5.05661,1.35717 -5.13732,1.43789 -0.42122,0.42122 0.60375,0.45706 4.76322,0.16657 8.68221,-0.60635 20.63045,-1.99298 24.28238,-2.81804 3.79742,-0.85794 6.76082,-1.94283 8.34146,-3.05379 2.33912,-1.64405 4.46048,-2.54745 7.68896,-3.27439 11.01936,-2.4812 21.31893,-2.79649 30.53625,-0.93478 4.34086,0.87677 5.78959,1.3325 7.20422,2.26626 1.13606,0.74988 1.46588,0.78878 2.43309,0.28698 0.58605,-0.30404 0.99517,-0.30804 2.47764,-0.0242 3.16035,0.60509 6.20739,1.46536 9.3163,2.63026 4.65818,1.74541 5.94486,2.38017 7.23464,3.56905 1.32636,1.22259 3.47293,4.62192 3.19875,5.06556 -0.0975,0.15778 -0.54715,0.2326 -0.99919,0.16625 -1.57996,-0.23189 -9.32556,0.31445 -12.08003,0.85207 -1.52797,0.29823 -4.26641,0.97271 -6.08542,1.49884 -1.81901,0.52614 -3.72401,0.99353 -4.23333,1.03866 -0.50932,0.0451 -2.59292,-0.2601 -4.63021,-0.67828 z M 61.246734,171.32927 c 0.30518,-1.75424 1.22037,-11.77528 1.84247,-20.17448 0.8508,-11.48679 1.27464,-17.17328 2.11012,-28.31041 0.36571,-4.87495 0.84161,-11.30433 1.05756,-14.28751 0.21595,-2.98318 0.74535,-10.126923 1.17644,-15.874996 1.16686,-15.558388 1.17042,-15.628796 0.85106,-16.801042 -0.15858,-0.582083 -1.124,-2.485783 -2.14539,-4.230443 -1.02138,-1.74466 -1.85706,-3.277999 -1.85706,-3.40742 0,-0.135898 4.44325,-0.172698 10.51718,-0.08711 10.47775,0.147648 17.50803,0.601009 25.506696,1.644845 5.51116,0.719213 4.93264,0.37662 5.94837,3.522575 1.23342,3.820202 4.49365,10.05293 9.36494,17.903383 0.54178,0.873125 2.72031,4.504532 4.84117,8.069792 4.28541,7.203966 4.93611,8.222926 4.93864,7.733666 9.6e-4,-0.18487 -0.49054,-1.37549 -1.09223,-2.64583 -3.41176,-7.203253 -5.2501,-14.077301 -5.25446,-19.64782 -0.002,-2.864187 0.71546,-8.247067 1.35219,-10.141604 1.24162,-3.694332 3.75264,-7.89043 7.06786,-11.810912 1.69017,-1.998739 8.84198,-9.547517 8.94646,-9.443037 0.0389,0.0389 -0.21029,0.661457 -0.55377,1.383449 -0.67272,1.414061 -1.20189,4.865558 -1.20314,7.847492 -9.5e-4,2.245808 1.44694,7.054685 1.96737,6.534254 0.0796,-0.07965 0.25764,-0.731041 0.39554,-1.447546 0.1379,-0.716506 1.10297,-3.683987 2.1446,-6.594404 3.64102,-10.173424 4.88132,-16.35601 4.8832,-24.341666 0.001,-4.582083 -0.0817,-5.664199 -0.61761,-8.069792 -0.74805,-3.358017 -2.06843,-6.982 -3.7114,-10.186458 -0.67149,-1.309688 -1.26721,-2.487004 -1.32383,-2.616258 -0.16732,-0.382008 4.90958,2.429169 7.77076,4.302822 4.56723,2.990868 9.04839,7.967237 12.01825,13.346379 5.20397,9.425656 6.05706,28.757036 1.73894,39.405077 -0.1105,0.27249 -0.0692,0.463021 0.1004,0.463021 0.45156,0 4.95737,-6.987309 6.39818,-9.921875 1.50289,-3.060992 3.65706,-9.41951 3.87681,-11.443229 0.0901,-0.829723 0.28011,-1.389062 0.4719,-1.389062 0.4432,0 2.80658,5.135957 3.81042,8.280573 1.44015,4.511424 1.97322,8.522271 1.99397,15.00276 0.0145,4.540993 -0.0785,6.142224 -0.46131,7.9375 -1.16732,5.474687 -3.37681,10.599071 -7.19553,16.688277 -3.25854,5.195959 -3.81946,6.027609 -6.05417,8.976299 -1.158,1.52797 -2.76937,3.66373 -3.58082,4.74612 l -1.47538,1.96799 -0.16512,-1.96799 c -0.1939,-2.31088 -0.64573,-3.63605 -4.00886,-11.75758 -2.98797,-7.215538 -3.02599,-7.34213 -3.37724,-11.244783 -0.22335,-2.481629 -0.20283,-3.310984 0.11127,-4.49756 0.66918,-2.527993 0.11661,-2.118394 -2.43396,1.80421 -5.48683,8.438348 -7.22814,13.630173 -7.21724,21.518673 0.008,5.67141 0.91534,8.86682 4.67707,16.46839 1.21655,2.45837 2.14889,4.57173 2.07186,4.69636 -0.077,0.12463 -1.14505,0.2266 -2.37339,0.2266 -1.22834,0 -2.23335,0.10993 -2.23335,0.24428 0,0.13436 0.27227,0.58084 0.60503,0.99219 0.33277,0.41135 1.24075,1.73017 2.01773,2.93072 0.77699,1.20054 1.49424,2.18281 1.59388,2.18281 0.30847,0 4.84019,-5.23166 8.02148,-9.26042 7.24609,-9.17638 18.40093,-25.66881 23.3535,-34.528128 5.41044,-9.678364 9.65213,-18.462485 9.65213,-19.988601 0,-0.299499 0.25761,-0.632544 0.59532,-0.769663 0.60172,-0.244311 11.21715,-1.630788 16.33802,-2.133902 3.83363,-0.376645 22.75416,-0.676711 22.75416,-0.360865 0,0.136382 -0.55495,1.137857 -1.23322,2.2255 -0.67827,1.087642 -1.601,2.751438 -2.05052,3.697323 -0.78624,1.654438 -0.81525,1.840445 -0.76335,4.894792 0.0297,1.74625 0.24209,6.330156 0.47205,10.186458 0.78173,13.109036 1.99748,32.118856 2.64817,41.407296 1.04992,14.98756 1.67657,24.8648 1.84647,29.10417 0.0875,2.18281 0.22773,4.59383 0.31167,5.35781 0.2222,2.02226 -0.42347,1.85787 -1.36026,-0.34632 -0.40565,-0.95446 -1.31708,-2.53204 -2.0254,-3.50573 -1.63837,-2.25219 -6.86301,-7.54247 -8.94934,-9.06178 -3.53826,-2.57662 -10.02289,-5.77217 -14.56085,-7.17541 -0.94588,-0.29249 -1.96617,-0.62732 -2.2673,-0.74408 -0.5215,-0.20221 -0.56254,-0.5309 -0.86406,-6.92048 -0.17411,-3.6895 -0.43078,-7.77974 -0.57039,-9.08943 -0.40399,-3.79001 -0.79617,-10.26249 -0.79617,-13.13997 0,-1.85448 -0.0898,-2.61692 -0.29984,-2.54689 -0.16492,0.055 -1.48251,2.0592 -2.92798,4.45382 -2.80401,4.64524 -3.77386,6.12113 -10.45879,15.9159 -7.16215,10.49397 -6.95347,10.25316 -8.89278,10.26249 -2.60822,0.0125 -14.333,3.40412 -22.26748,6.44122 -8.40819,3.21842 -13.06327,5.04524 -15.61042,6.1261 -1.60072,0.67925 -3.85067,1.58825 -4.99988,2.02 -1.14921,0.43175 -2.39,1.02139 -2.75731,1.31031 -0.36731,0.28893 -0.75822,0.43261 -0.86869,0.3193 -0.2728,-0.27984 -8.5335,-12.80489 -16.11266,-24.43038 -3.41974,-5.24545 -7.56426,-11.46584 -9.21005,-13.82309 -1.64579,-2.35724 -3.669847,-5.47652 -4.497917,-6.93173 l -1.50557,-2.64583 -0.16258,6.35 c -0.0894,3.4925 -0.17872,16.31446 -0.19844,28.49324 -0.0201,12.3864 -0.13824,22.20652 -0.26823,22.28686 -0.23232,0.14358 -9.296859,1.15678 -16.892459,1.88817 -3.8267,0.36848 -13.81353,0.89888 -17.06594,0.90637 -1.50738,0.003 -1.51413,-5e-5 -1.38817,-0.72412 z"
       id="path1" /></g></svg>
