<svg xmlns="http://www.w3.org/2000/svg" viewBox="0 0 300 300" role="img" aria-label="Maresia Grill">
  <path
    fill="#d7b05c"
    d="m 94.536474,283.88054 c -3.50366,-0.89095 -6.86811,-3.51878 -8.23166,-6.42942 -0.65764,-1.4038 -0.7219,-1.81175 -0.70181,-4.4557 0.0178,-2.34586 0.13675,-3.20489 0.61309,-4.4285 1.72071,-4.42002 4.81787,-6.71904 9.982619,-7.41007 3.60665,-0.48257 7.418587,0.53292 9.855907,2.62557 l 0.89456,0.76806 -1.77532,1.70893 c -0.97643,0.93991 -1.87907,1.74664 -2.00587,1.79273 -0.12681,0.0461 -0.57449,-0.17048 -0.99486,-0.48127 -1.39657,-1.03253 -4.570487,-1.39045 -6.215847,-0.70096 -1.222629,0.51235 -2.545349,1.70077 -3.409409,3.06325 -1.74027,2.74412 -0.25565,6.71279 3.022649,8.08016 1.58621,0.6616 3.86721,0.80241 5.042617,0.31129 0.94338,-0.39417 1.0025,-0.48491 0.92526,-1.41993 l -0.0825,-0.99885 h -1.719797 -1.71979 l -0.0753,-2.86731 -0.0753,-2.86731 0.86908,0.19232 c 0.478,0.10577 2.655017,0.26497 4.837827,0.35377 l 3.96875,0.16145 0.0798,4.10104 c 0.10924,5.61678 0.005,6.19887 -1.26022,7.03614 -0.55738,0.36886 -1.88902,0.97918 -2.95919,1.35627 -2.34215,0.82529 -6.647837,1.07218 -8.865176,0.50834 z m 38.133216,-0.17031 c -0.34355,-0.12202 -2.65542,-3.80362 -3.85031,-6.13151 -0.55027,-1.07204 -1.38255,-1.49357 -1.97619,-1.00089 -0.29946,0.24853 -0.38418,1.07024 -0.38418,3.72603 v 3.40718 h -3.04271 -3.04271 v -10.84791 c 0,-5.96636 0.0298,-10.93722 0.0661,-11.04636 0.0364,-0.10914 2.80459,-0.19844 6.15157,-0.19844 6.86158,0 8.16558,0.24573 9.75881,1.83895 1.47773,1.47773 1.88343,2.62352 1.87832,5.30481 -0.005,2.84957 -0.49697,3.99999 -2.40638,5.6321 l -1.23847,1.05861 1.66124,3.00464 c 0.91369,1.65256 1.94316,3.38365 2.28772,3.84689 0.34456,0.46323 0.62647,0.96204 0.62647,1.10846 0,0.27643 -5.80002,0.54227 -6.48933,0.29744 z m -1.2676,-13.12577 c 0.63612,-0.47493 0.74546,-0.74222 0.74546,-1.82237 0,-1.8242 -0.7229,-2.30539 -3.69807,-2.46155 l -2.25505,-0.11836 v 2.37034 c 0,1.30368 0.0893,2.46051 0.19843,2.57074 0.10915,0.11023 1.11314,0.15932 2.2311,0.10909 1.55492,-0.0699 2.20787,-0.22213 2.77813,-0.64789 z m 44.99702,13.18794 -6.28385,-0.0709 v -11.10772 -11.10771 h 2.86766 2.86765 l 0.17369,8.5094 c 0.0955,4.68017 0.22282,8.55853 0.28287,8.61859 0.0601,0.06 2.14426,0.17803 4.63157,0.26218 l 4.52239,0.153 v 2.33587 c 0,2.57842 -0.0666,2.66338 -1.98437,2.53245 -0.43657,-0.0298 -3.62149,-0.0861 -7.07761,-0.12513 z m 20.66731,0.018 c -0.02,-0.11642 -0.0497,-5.18572 -0.0661,-11.26513 l -0.0298,-11.05345 3.0427,0.0733 3.04271,0.0732 0.0698,8.5008 0.0698,8.5008 4.62659,0.19275 4.62658,0.19274 v 2.35281 c 0,1.70775 -0.0907,2.35184 -0.33073,2.34927 -0.1819,-0.002 -3.63471,0.0635 -7.67291,0.14552 -4.03821,0.082 -7.35854,0.0538 -7.37853,-0.0626 z m -46.0548,-9.14136 c -0.0757,-4.98408 -0.11198,-9.95494 -0.0806,-11.04635 l 0.057,-1.98438 2.9073,-0.0744 2.90729,-0.0744 0.17318,4.17547 c 0.0952,2.2965 0.17357,7.30085 0.17405,11.12077 l 8.8e-4,6.94531 h -3.00071 -3.00072 z m -85.539066,0.5671 c -1.16416,-0.13354 -3.78354,-0.47439 -5.82083,-0.75744 -2.03729,-0.28305 -4.41854,-0.58426 -5.29167,-0.66936 -2.20006,-0.21443 -3.38136,-0.41119 -3.25105,-0.5415 0.0607,-0.0607 3.61495,-0.58944 7.89839,-1.17503 4.28344,-0.58559 8.08574,-1.1135 8.44954,-1.17313 0.91131,-0.14937 6.10388,1.36744 6.7161,1.96185 0.48634,0.4722 0.47355,0.49638 -0.52917,1.00022 -2.65588,1.3345 -4.98267,1.72016 -8.17131,1.35439 z M 226.7351,274.74975 c -2.54293,-0.81402 -3.55267,-1.79465 -2.4464,-2.37588 0.25466,-0.1338 1.59411,-0.50254 2.97656,-0.81943 l 2.51354,-0.57616 5.42396,0.66199 c 10.92308,1.33315 12.71694,1.58897 12.38112,1.76566 -0.18842,0.0991 -1.40819,0.25821 -2.7106,0.35349 -1.30241,0.0953 -4.74542,0.46837 -7.65114,0.82909 -6.17265,0.76627 -8.48587,0.80184 -10.48704,0.16124 z M 15.947074,252.3278 c 0.25648,-0.89876 0.444,-3.04814 0.85144,-9.75947 0.22086,-3.63802 0.63334,-10.12692 0.91663,-14.41979 0.28328,-4.29286 0.69658,-11.37708 0.91844,-15.74271 0.22187,-4.36562 0.47728,-8.8916 0.56759,-10.05772 l 0.1642,-2.12023 -1.33958,-2.57613 -1.33958,-2.57612 h 4.43732 c 4.74966,0 9.77575,0.38047 10.9181,0.8265 0.55772,0.21775 0.8641,0.71371 1.50452,2.43545 0.44231,1.1891 1.3586,3.65029 2.03621,5.4693 0.67761,1.81901 1.92,5.27182 2.76087,7.67291 0.84087,2.4011 1.93992,5.43719 2.44233,6.74688 0.50242,1.30969 1.11996,3.05252 1.37231,3.87296 0.25235,0.82044 0.61803,1.70943 0.81261,1.97554 0.32265,0.44124 0.38375,0.37981 0.69426,-0.69796 0.18726,-0.64999 1.33086,-3.7102 2.54133,-6.80048 1.21047,-3.09029 2.20086,-5.67385 2.20086,-5.74126 0,-0.31534 5.10037,-13.80792 5.56056,-14.70997 0.37953,-0.74394 0.7642,-1.09109 1.4051,-1.26805 1.00354,-0.27709 14.201,-0.0732 14.201,0.21937 0,0.10425 -0.31571,0.65265 -0.70159,1.21866 -1.51674,2.22476 -1.93742,3.51435 -1.80106,5.5211 0.49312,7.25698 1.53705,30.46293 1.88785,41.96566 l 0.16612,5.44723 -3.41368,0.17409 c -1.87752,0.0957 -4.63407,0.17457 -6.12566,0.17516 l -2.71198,0.001 -0.006,-2.44739 c -0.003,-1.34607 -0.11695,-6.2574 -0.25232,-10.91407 -0.5874,-20.20538 -0.58909,-20.24062 -0.96916,-20.24062 -0.19791,0 -0.35983,0.039 -0.35983,0.0866 0,0.36975 -3.44507,9.91224 -4.85923,13.45958 -0.96871,2.42994 -2.22867,5.70416 -2.79992,7.27604 -2.10547,5.79362 -2.56529,6.81562 -3.21848,7.15355 -0.56491,0.29225 -4.99737,0.49375 -4.99737,0.22718 0,-0.21519 -9.80738,-26.5004 -10.10337,-27.07849 -0.16764,-0.32742 -0.38643,-0.59531 -0.4862,-0.59531 -0.21272,0 -0.26306,0.83818 -1.20773,20.10833 -0.39593,8.07641 -0.81444,14.7914 -0.93004,14.9222 -0.1156,0.1308 -2.27486,0.39015 -4.79835,0.57632 -2.52349,0.18618 -4.924,0.42279 -5.33446,0.52581 -0.64647,0.16225 -0.72724,0.12055 -0.60388,-0.31174 z m 265.954646,-0.53344 c -0.43657,-0.0481 -2.85467,-0.28941 -5.37356,-0.53633 -3.57861,-0.35079 -4.62705,-0.53992 -4.79592,-0.86515 -0.11887,-0.22892 -0.83398,-2.97606 -1.58913,-6.10475 -0.75516,-3.1287 -1.4545,-5.76508 -1.55408,-5.85863 -0.0996,-0.0935 -3.30826,-0.25258 -7.1304,-0.35342 l -6.94933,-0.18333 -0.37681,0.90182 c -0.20724,0.496 -0.99972,3.21488 -1.76107,6.04196 -0.76134,2.82708 -1.45317,5.22138 -1.5374,5.32068 -0.14665,0.1729 -8.2498,-0.26996 -8.45432,-0.46205 -0.0545,-0.0512 2.04579,-7.27161 4.66732,-16.04537 2.62152,-8.77376 5.38512,-18.27401 6.14133,-21.11166 0.7562,-2.83766 1.84459,-6.56756 2.41864,-8.28867 l 1.04372,-3.1293 -1.19,-1.89779 -1.19,-1.89779 7.58043,-0.0703 c 4.16923,-0.0387 7.68211,0.0314 7.80639,0.15569 0.21343,0.21342 0.89243,2.75857 6.40057,23.99168 1.24575,4.80219 2.73623,10.45765 3.31219,12.56771 0.57595,2.11005 1.84382,6.87255 2.81747,10.58333 0.97366,3.71078 1.82636,6.8957 1.89491,7.0776 0.12446,0.33032 -0.34804,0.36586 -2.18095,0.16405 z"
  />
</svg>
